<svg xmlns="http://www.w3.org/2000/svg" width="100" height="128.741" viewBox="0 0 100 128.741">
  <g id="그룹_1202" data-name="그룹 1202" transform="translate(-287.893 -92.405)">
    <path id="패스_2585" data-name="패스 2585" d="M387.657,166.254h.031L381.616,99.24a7.506,7.506,0,0,0-11.3-5.786l-57.792,34.273h.035a49.834,49.834,0,0,0-19.287,20.425,50.583,50.583,0,0,0,19.58,66.286,50.02,50.02,0,0,0,68.327-18.312q.655-1.134,1.249-2.3A49.972,49.972,0,0,0,387.657,166.254Zm-50.918,31.812a23.426,23.426,0,0,1-22.068-23.233,23.166,23.166,0,0,1,3.657-12.521h0l16.641-26.4a3.472,3.472,0,0,1,5.89,0l16.641,26.4h0A23.259,23.259,0,0,1,337.934,198.1q-.606,0-1.21-.03Z" fill="#fff"/>
  </g>
</svg>
